<svg width="42" height="33" viewBox="0 0 42 33" fill="none" xmlns="http://www.w3.org/2000/svg">
<path d="M8.24546 16.1887C3.67504 16.1887 0.583374 13.0037 0.583374 8.28458C0.583374 4.03792 4.13004 0.5 8.93379 0.5C14.1955 0.5 18.0834 4.74667 18.0834 11.2333C18.0834 25.9771 7.33254 31.8746 0.583374 32.5833V26.0967C5.15962 25.2712 10.3046 20.6717 10.535 15.5967C10.3046 15.7133 9.39171 16.1887 8.24546 16.1887ZM31.5788 16.1887C27.0055 16.1887 23.9167 13.0037 23.9167 8.28458C23.9167 4.03792 27.4634 0.5 32.2671 0.5C37.5288 0.5 41.4167 4.74667 41.4167 11.2333C41.4167 25.9771 30.6659 31.8746 23.9167 32.5833V26.0967C28.493 25.2712 33.638 20.6717 33.8684 15.5967C33.638 15.7133 32.725 16.1887 31.5788 16.1887Z" fill="black"/>
</svg>
